<?xml version="1.0" encoding="UTF-8"?>
<svg width="105px" height="102px" viewBox="0 0 105 102" version="1.1" xmlns="http://www.w3.org/2000/svg" xmlns:xlink="http://www.w3.org/1999/xlink">
    <!-- Generator: sketchtool 48.1 (47250) - http://www.bohemiancoding.com/sketch -->
    <title>F661A47F-38C1-4DA5-81C0-6712E23036A5</title>
    <desc>Created with sketchtool.</desc>
    <defs></defs>
    <g id="Filters-empty" stroke="none" stroke-width="1" fill="none" fill-rule="evenodd" transform="translate(-1687.000000, -103.000000)">
        <g id="screen">
            <g id="filters" transform="translate(1568.000000, 73.000000)">
                <g id="notifications-empty" transform="translate(119.000000, 30.000000)">
                    <g id="bg">
                        <path d="M43.9751011,8.35049358 C59.7082749,-7.97058958 93.3154423,15.9165864 102.633061,33.2555491 C107.539626,42.3860755 102.372769,64.0902809 93.3154423,80.0883776 C84.0752663,96.4094441 44.0451149,105.795264 27.6613722,100.355763 C16.9887478,96.8123879 -5.07015029,84.5378556 1.45730981,53.7864571 C7.98476991,23.0350587 30.376667,22.4570671 43.9751011,8.35049358 Z" id="Path-3" fill="#FEF2F8"></path>
                        <path d="M53.9859885,1.99883328 C54.731889,1.25624788 56.4723235,3.97906103 58.9586586,3.97906103 C61.4449936,3.97906103 63.1854282,1.25624788 63.9313287,1.99883328 C64.6772292,2.74141869 61.9422607,4.47411797 61.9422607,6.94940265 C61.9422607,9.42468733 64.6772292,11.1573866 63.9313287,11.899972 C63.1854282,12.6425574 61.4449936,9.91974427 58.9586586,9.91974427 C56.4723235,9.91974427 54.7353222,12.6459754 53.9859885,11.899972 C53.2366547,11.1539686 55.9750565,9.42468733 55.9750565,6.94940265 C55.9750565,4.47411797 53.2400879,2.74141869 53.9859885,1.99883328 Z" id="Rectangle-Copy" fill="#FFC858" transform="translate(58.958179, 6.949880) rotate(-150.000000) translate(-58.958179, -6.949880) "></path>
                        <path d="M35.1852027,21.5630982 L39.163752,28.8571054 C39.4811073,29.4389234 39.2667179,30.1678474 38.6848999,30.4852027 C38.5086336,30.5813479 38.3110601,30.631728 38.1102774,30.631728 L30.1531786,30.631728 C29.4904369,30.631728 28.9531786,30.0944697 28.9531786,29.431728 C28.9531786,29.2309452 29.0035587,29.0333717 29.0997039,28.8571054 L33.0782533,21.5630982 C33.3956086,20.9812802 34.1245325,20.7668908 34.7063505,21.0842461 C34.9086304,21.1945806 35.0748682,21.3608184 35.1852027,21.5630982 Z" id="Triangle" stroke="#CC87FE" stroke-width="2" transform="translate(34.131728, 25.131728) rotate(-315.000000) translate(-34.131728, -25.131728) "></path>
                        <ellipse id="Oval-Copy-11" stroke="#FA759E" stroke-width="2" cx="76.5510204" cy="20.5396825" rx="3.55102041" ry="3.53968254"></ellipse>
                    </g>
                    <g id="bell" transform="translate(54.000000, 65.000000) scale(1, -1) translate(-54.000000, -65.000000) translate(16.000000, 31.000000)">
                        <path d="M32.6401844,1.36682033 L42.6401844,9.70015367 C42.868177,9.89014749 43,10.1715951 43,10.4683749 L43,26.232528 C43,26.7266115 43.1828872,27.203208 43.5134117,27.5704575 L70,57 L4,57 L30.4865883,27.5704575 C30.8171128,27.203208 31,26.7266115 31,26.232528 L31,2.13504161 C31,1.58275686 31.4477153,1.13504161 32,1.13504161 C32.2339365,1.13504161 32.4604694,1.21705783 32.6401844,1.36682033 Z" id="Combined-Shape" stroke="#4B2372" stroke-width="2" fill="#F5E5FF" stroke-linecap="round"></path>
                        <path d="M38,7.25607379 L41.6316664,10.2151583 C41.8647375,10.4050647 42,10.6897549 42,10.9903986 L42,26.2473519 C42,26.9884808 42.2743335,27.7033786 42.7701244,28.2542537 L67.0670728,55.2506775 L63.1702775,55.4424719 L38.5022585,27.5675533 C38.1786472,27.2018718 38,26.7304318 38,26.2421211 L38,7.25607379 Z" id="Combined-Shape" fill="#E7C5FF"></path>
                        <path d="M51,56 L5.5,56 C2.46243388,56 -3.71994563e-16,58.4624339 0,61.5 L4.4408921e-16,66 C5.11724585e-16,66.5522847 0.44771525,67 1,67 L74.0066664,67.0006059 C74.5589511,67.0006059 75.0066664,66.5528906 75.0066664,66.0006059 C75.0066664,66.0004038 75.0066663,66.0002018 75.0066662,65.9999998 L75.0033332,61.5 C75.001492,58.4618948 72.5381047,56 69.499999,56 L58,56" id="Path-4" stroke="#4B2372" stroke-width="2" fill="#F5E5FF" stroke-linecap="round"></path>
                        <path d="M69,65.9995043 L74,65.9995043 L73.9940443,61.500001 C73.9924006,59.0158829 71.9781639,57.0029785 69.4940452,57.0029785 L65,57 C67.6666667,58.3333333 69,61.3331681 69,65.9995043 Z" id="Path-4" fill="#E7C5FF"></path>
                    </g>
                </g>
            </g>
        </g>
    </g>
</svg>