<?xml version="1.0" encoding="UTF-8"?>
<svg width="142px" height="124px" viewBox="0 0 142 124" version="1.1" xmlns="http://www.w3.org/2000/svg" xmlns:xlink="http://www.w3.org/1999/xlink">
    <!-- Generator: Sketch 48.1 (47250) - http://www.bohemiancoding.com/sketch -->
    <title>nocomments-image</title>
    <desc>Created with Sketch.</desc>
    <defs></defs>
    <g id="Comments-empty" stroke="none" stroke-width="1" fill="none" fill-rule="evenodd" transform="translate(-1664.000000, -565.000000)">
        <g id="nocomments-image" transform="translate(1664.000000, 565.000000)">
            <path d="M74.3191057,2.23618383 C96.4705285,15.9418266 87.1626016,17.3845259 105.85061,35.7068063 C119.054878,48.6910995 150.009146,51.0715532 139.979675,76.9680047 C133.052846,94.8574753 113.426829,121.908086 90.0487805,123.639325 C70.7835366,125.082024 57.4349593,121.114602 38.8912602,113.82897 C6.13313008,100.916812 -5.33943089,82.017452 2.30894309,48.7632344 C5.48373984,40.7562536 8.08130081,35.3461315 10.101626,32.388598 C21.429878,15.7975567 47.1890244,0.64921466 64.0731707,0 L66.3821138,0 C69.4126016,0.144269924 72.1544715,0.793484584 74.3191057,2.16404887 L74.3191057,2.23618383 Z" id="Shape" fill="#FEF2F8" fill-rule="nonzero"></path>
            <path d="M76.7002033,14.8598022 C75.6900407,15.1483421 75.5457317,11.9022688 73.3810976,10.6759744 C71.2164634,9.44968005 68.3302846,10.8923793 68.0416667,9.88248982 C67.7530488,8.87260035 71,8.72833042 72.226626,6.56428156 C73.453252,4.40023269 71.9380081,1.51483421 72.9481707,1.29842932 C73.9583333,1.00988947 74.1026423,4.25596277 76.2672764,5.48225713 C78.4319106,6.70855148 81.3180894,5.26585224 81.6067073,6.27574171 C81.8953252,7.28563118 78.648374,7.42990111 77.421748,9.59394997 C76.195122,11.7579988 77.7103659,14.6433973 76.7002033,14.8598022 Z" id="Shape" fill="#FFC858" fill-rule="nonzero"></path>
            <path d="M91.1310976,104.595695 C91.0589431,104.52356 90.9146341,104.595695 90.8424797,104.66783 L88.3892276,109.212333 C88.3892276,109.212333 88.3892276,109.284468 88.3892276,109.284468 C88.3892276,109.428738 88.4613821,109.500873 88.6056911,109.500873 L93.5843496,109.500873 C93.5843496,109.500873 93.6565041,109.500873 93.6565041,109.500873 C93.7286585,109.428738 93.800813,109.356603 93.7286585,109.212333 L91.2754065,104.66783 C91.2754065,104.66783 91.203252,104.595695 91.203252,104.595695 L91.1310976,104.595695 Z M95.4603659,108.274578 C96.0376016,109.356603 95.6768293,110.655032 94.5945122,111.232112 C94.3058943,111.376382 93.8729675,111.520652 93.5121951,111.520652 L88.5335366,111.520652 C87.3069106,111.520652 86.296748,110.510762 86.296748,109.284468 C86.296748,108.923793 86.3689024,108.563118 86.5853659,108.202443 L89.0386179,103.657941 C89.6158537,102.575916 90.9867886,102.215241 91.9969512,102.792321 C92.3577236,103.008726 92.6463415,103.297266 92.8628049,103.657941 L95.3160569,108.202443 L95.4603659,108.274578 Z" id="Shape" fill="#FA759E" fill-rule="nonzero"></path>
            <path d="M10.3180894,38.23153 C11.7611789,38.23153 12.8434959,37.0773706 12.8434959,35.7068063 C12.8434959,34.336242 11.6890244,33.1820826 10.3180894,33.1820826 C8.875,33.1820826 7.79268293,34.336242 7.79268293,35.7068063 C7.79268293,37.0773706 8.94715447,38.23153 10.3180894,38.23153 Z M10.3180894,40.2513089 C7.79268293,40.2513089 5.77235772,38.23153 5.77235772,35.7068063 C5.77235772,33.1820826 7.79268293,31.1623037 10.3180894,31.1623037 C12.8434959,31.1623037 14.8638211,33.1820826 14.8638211,35.7068063 C14.8638211,38.23153 12.8434959,40.2513089 10.3180894,40.2513089 Z" id="Shape" fill="#CC87FE" fill-rule="nonzero"></path>
            <path d="M27.7794715,39.2414194 L27.7794715,33.1099476 C27.7794715,27.5555556 32.2530488,23.0831879 37.8089431,23.0831879 L109.963415,23.0831879 C115.519309,23.0831879 119.992886,27.5555556 119.992886,33.1099476 L119.992886,73.2169866 C119.992886,78.7713787 115.519309,83.2437464 109.963415,83.2437464 L37.8089431,83.2437464 C32.2530488,83.2437464 27.7794715,78.7713787 27.7794715,73.2169866 L27.7794715,52.0093077 L27.7794715,39.2414194 Z" id="Shape" fill="#E7C5FF" fill-rule="nonzero"></path>
            <path d="M27.7794715,39.2414194 L27.7794715,33.1099476 C27.7794715,27.5555556 32.2530488,23.0831879 37.8089431,23.0831879 L109.963415,23.0831879 C115.519309,23.0831879 119.992886,27.5555556 119.992886,33.1099476 L119.992886,73.2169866 C119.992886,78.7713787 115.519309,83.2437464 109.963415,83.2437464 L37.8089431,83.2437464 C32.2530488,83.2437464 27.7794715,78.7713787 27.7794715,73.2169866 L27.7794715,52.0093077" id="Shape" stroke="#4B2372" stroke-width="2.00707697" stroke-linecap="round"></path>
            <path d="M74.6077236,94.3525305 L83.8434959,83.2437464 L63.7845528,83.2437464 L73.0203252,94.3525305 C73.3810976,94.7853403 74.0304878,94.8574753 74.4634146,94.4968005 C74.5355691,94.4246655 74.5355691,94.4246655 74.6077236,94.3525305 Z" id="Shape" fill="#CC87FE" fill-rule="nonzero"></path>
            <path d="M74.6077236,94.3525305 L83.8434959,83.2437464 L63.7845528,83.2437464 L73.0203252,94.3525305 C73.3810976,94.7853403 74.0304878,94.8574753 74.4634146,94.4968005 C74.5355691,94.4246655 74.5355691,94.4246655 74.6077236,94.3525305 Z" id="Shape" stroke="#4B2372" stroke-width="2.00707697" stroke-linecap="round"></path>
            <polygon id="Shape" fill="#E7C5FF" fill-rule="nonzero" points="73.8861789 93.6311809 83.9156504 81.6567772 63.8567073 81.6567772"></polygon>
            <path d="M28.7896341,45.1564863 C28.7896341,45.733566 28.3567073,46.1663758 27.7794715,46.1663758 C27.2022358,46.1663758 26.7693089,45.733566 26.7693089,45.1564863 L26.7693089,44.1465969 C26.7693089,43.5695172 27.2022358,43.1367074 27.7794715,43.1367074 C28.3567073,43.1367074 28.7896341,43.5695172 28.7896341,44.1465969 L28.7896341,45.1564863 Z" id="Shape" fill="#4B2372" fill-rule="nonzero"></path>
            <path d="M52.3119919,59.150669 C55.3424797,59.150669 57.7957317,56.6980803 57.7957317,53.6684119 C57.7957317,50.6387435 55.3424797,48.1861547 52.3119919,48.1861547 C49.2815041,48.1861547 46.828252,50.6387435 46.828252,53.6684119 C46.828252,56.6980803 49.2815041,59.150669 52.3119919,59.150669 Z" id="Shape" fill="#FFFFFF" fill-rule="nonzero"></path>
            <path d="M73.3810976,59.150669 C76.4115854,59.150669 78.8648374,56.6980803 78.8648374,53.6684119 C78.8648374,50.6387435 76.4115854,48.1861547 73.3810976,48.1861547 C70.3506098,48.1861547 67.8973577,50.6387435 67.8973577,53.6684119 C67.8973577,56.6980803 70.3506098,59.150669 73.3810976,59.150669 Z" id="Shape" fill="#FFFFFF" fill-rule="nonzero"></path>
            <path d="M94.4502033,59.150669 C97.4806911,59.150669 99.9339431,56.6980803 99.9339431,53.6684119 C99.9339431,50.6387435 97.4806911,48.1861547 94.4502033,48.1861547 C91.4197154,48.1861547 88.9664634,50.6387435 88.9664634,53.6684119 C88.9664634,56.6980803 91.4197154,59.150669 94.4502033,59.150669 Z" id="Shape" fill="#FFFFFF" fill-rule="nonzero"></path>
            <path d="M100.222561,76.1023851 C103.397358,73.5055265 108.087398,74.0104712 110.684959,77.1844095 L112.128049,78.9877836 C112.488821,79.4205934 113.138211,79.4927283 113.571138,79.1320535 L115.375,77.6893543 C118.549797,75.0924956 123.239837,75.5974404 125.837398,78.7713787 C128.434959,81.945317 127.929878,86.6340896 124.755081,89.1588133 L111.406504,99.9069226 C110.973577,100.267597 110.324187,100.195462 109.963415,99.7626527 L99.1402439,86.4176847 C96.5426829,83.2437464 97.0477642,78.5549738 100.222561,76.0302501 L100.222561,76.1023851 Z" id="Shape" fill="#FA759E" fill-rule="nonzero"></path>
            <path d="M100.222561,76.1023851 C103.397358,73.5055265 108.087398,74.0104712 110.684959,77.1844095 L112.128049,78.9877836 C112.488821,79.4205934 113.138211,79.4927283 113.571138,79.1320535 L115.375,77.6893543 C118.549797,75.0924956 123.239837,75.5974404 125.837398,78.7713787 C128.434959,81.945317 127.929878,86.6340896 124.755081,89.1588133 L111.406504,99.9069226 C110.973577,100.267597 110.324187,100.195462 109.963415,99.7626527 L99.1402439,86.4176847 C96.5426829,83.2437464 97.0477642,78.5549738 100.222561,76.0302501" id="Shape" stroke="#4B2372" stroke-width="2"></path>
            <path d="M7.57621951,74.9482257 L37.5924797,72.8563118 C39.8292683,72.7120419 41.7052846,74.371146 41.8495935,76.6073298 L42.6432927,87.5718441 C42.7876016,89.8080279 41.1280488,91.6835369 38.8912602,91.8278069 L8.875,93.9197208 C6.63821138,94.0639907 4.76219512,92.4048866 4.61788618,90.1687027 L3.82418699,79.2041885 C3.67987805,76.9680047 5.33943089,75.0924956 7.57621951,74.9482257 Z" id="Shape" fill="#FFFFFF" fill-rule="nonzero"></path>
            <path d="M7.57621951,74.9482257 L37.5924797,72.8563118 C39.8292683,72.7120419 41.7052846,74.371146 41.8495935,76.6073298 L42.6432927,87.5718441 C42.7876016,89.8080279 41.1280488,91.6835369 38.8912602,91.8278069 L8.875,93.9197208 C6.63821138,94.0639907 4.76219512,92.4048866 4.61788618,90.1687027 L3.82418699,79.2041885 C3.67987805,76.9680047 5.33943089,75.0924956 7.57621951,74.9482257 Z" id="Shape" stroke="#4B2372" stroke-width="1.50530592" stroke-linecap="round"></path>
            <path d="M10.0294715,81.8010471 L35.0670732,80.069808" id="Shape" stroke="#DCD4E3" stroke-width="2.00707697" stroke-linecap="round"></path>
            <path d="M10.3902439,86.8504945 L22.3678862,85.9848749" id="Shape" stroke="#DCD4E3" stroke-width="2.00707697" stroke-linecap="round"></path>
            <path d="M27.7073171,89.591623 L57.7235772,87.4997091 C59.9603659,87.3554392 61.8363821,89.0145433 61.9806911,91.2507272 L62.7743902,102.215241 C62.9186992,104.451425 61.2591463,106.326934 59.0223577,106.471204 L29.0060976,108.563118 C26.7693089,108.707388 24.8932927,107.048284 24.7489837,104.8121 L23.9552846,93.8475858 C23.8109756,91.611402 25.4705285,89.735893 27.7073171,89.591623 Z" id="Shape" fill="#FFFFFF" fill-rule="nonzero"></path>
            <path d="M27.7073171,89.591623 L57.7235772,87.4997091 C59.9603659,87.3554392 61.8363821,89.0145433 61.9806911,91.2507272 L62.7743902,102.215241 C62.9186992,104.451425 61.2591463,106.326934 59.0223577,106.471204 L29.0060976,108.563118 C26.7693089,108.707388 24.8932927,107.048284 24.7489837,104.8121 L23.9552846,93.8475858 C23.8109756,91.611402 25.4705285,89.735893 27.7073171,89.591623 Z" id="Shape" stroke="#4B2372" stroke-width="1.50530592" stroke-linecap="round"></path>
            <path d="M30.1605691,96.5165794 L55.1260163,94.7132054" id="Shape" stroke="#FA759E" stroke-width="2.00707697" stroke-linecap="round"></path>
            <path d="M30.5213415,101.493892 L49.4979675,100.123328" id="Shape" stroke="#FA759E" stroke-width="2.00707697" stroke-linecap="round"></path>
        </g>
    </g>
</svg>