<?xml version="1.0" encoding="UTF-8"?>
<svg width="906px" height="189px" viewBox="0 0 906 189" version="1.1" xmlns="http://www.w3.org/2000/svg" xmlns:xlink="http://www.w3.org/1999/xlink">
    <!-- Generator: Sketch 48.1 (47250) - http://www.bohemiancoding.com/sketch -->
    <title>rocket</title>
    <desc>Created with Sketch.</desc>
    <defs>
        <linearGradient x1="99.2007613%" y1="20.1301946%" x2="1.99873451%" y2="50%" id="linearGradient-1">
            <stop stop-color="#FFFFFF" stop-opacity="0" offset="0%"></stop>
            <stop stop-color="#A6A2FF" stop-opacity="0.8" offset="100%"></stop>
        </linearGradient>
        <linearGradient x1="95.1574229%" y1="64.8111486%" x2="22.0319831%" y2="64.8111464%" id="linearGradient-2">
            <stop stop-color="#AAD3FF" stop-opacity="0" offset="0%"></stop>
            <stop stop-color="#FFFFFF" stop-opacity="0.8" offset="100%"></stop>
        </linearGradient>
        <linearGradient x1="50%" y1="0%" x2="50%" y2="100%" id="linearGradient-3">
            <stop stop-color="#23396B" offset="0%"></stop>
            <stop stop-color="#23396B" offset="44.9205662%"></stop>
            <stop stop-color="#15274D" offset="68.4260853%"></stop>
            <stop stop-color="#0F1A36" offset="100%"></stop>
        </linearGradient>
        <linearGradient x1="50%" y1="0%" x2="50%" y2="100%" id="linearGradient-4">
            <stop stop-color="#324C87" offset="0%"></stop>
            <stop stop-color="#415D9D" offset="44.9205662%"></stop>
            <stop stop-color="#284072" offset="68.4260853%"></stop>
            <stop stop-color="#1E2F59" offset="100%"></stop>
        </linearGradient>
        <linearGradient x1="50%" y1="0%" x2="50%" y2="99.8903858%" id="linearGradient-5">
            <stop stop-color="#DDEEFF" offset="0%"></stop>
            <stop stop-color="#FFFFFF" offset="47.8410469%"></stop>
            <stop stop-color="#C2D5FF" offset="100%"></stop>
        </linearGradient>
        <path d="M0.370118829,50.050974 C50.7503032,5.06500592 112.882899,-9.28824172 186.767907,6.99123106 C259.055598,22.1150162 248.101349,56.9170088 237.089355,66.6485442 C226.077361,76.3800795 194.023983,99.5359148 146.220061,101.6346 C98.41614,103.733285 47.9589172,99.5866745 0.370118829,50.050974 Z" id="path-6"></path>
        <linearGradient x1="64.6639613%" y1="62.5913807%" x2="50%" y2="100%" id="linearGradient-8">
            <stop stop-color="#B1BCD2" offset="0%"></stop>
            <stop stop-color="#68748C" offset="100%"></stop>
        </linearGradient>
        <linearGradient x1="50%" y1="0%" x2="50%" y2="100%" id="linearGradient-9">
            <stop stop-color="#B1BCD2" offset="0%"></stop>
            <stop stop-color="#616D86" offset="100%"></stop>
        </linearGradient>
        <linearGradient x1="100%" y1="0%" x2="50%" y2="100%" id="linearGradient-10">
            <stop stop-color="#616D86" offset="0%"></stop>
            <stop stop-color="#3C4967" offset="100%"></stop>
        </linearGradient>
        <linearGradient x1="0%" y1="100%" x2="100%" y2="0%" id="linearGradient-11">
            <stop stop-color="#E636F1" offset="0%"></stop>
            <stop stop-color="#55CDFB" offset="100%"></stop>
        </linearGradient>
        <linearGradient x1="2.75740674%" y1="47.5810677%" x2="100%" y2="47.5810682%" id="linearGradient-12">
            <stop stop-color="#918EF7" offset="0%"></stop>
            <stop stop-color="#000000" offset="100%"></stop>
        </linearGradient>
        <filter x="0.0%" y="0.0%" width="100.0%" height="100.0%" filterUnits="objectBoundingBox" id="filter-13">
            <feGaussianBlur stdDeviation="0" in="SourceGraphic"></feGaussianBlur>
        </filter>
        <filter x="0.0%" y="0.0%" width="100.0%" height="100.0%" filterUnits="objectBoundingBox" id="filter-14">
            <feGaussianBlur stdDeviation="0" in="SourceGraphic"></feGaussianBlur>
        </filter>
        <linearGradient x1="50%" y1="0%" x2="50%" y2="100%" id="linearGradient-15">
            <stop stop-color="#C7E2FE" offset="0%"></stop>
            <stop stop-color="#52A3F8" offset="100%"></stop>
        </linearGradient>
        <ellipse id="path-16" cx="114.942546" cy="72.1208167" rx="25.4222925" ry="25.4168177"></ellipse>
        <linearGradient x1="95.867977%" y1="47.2152053%" x2="1.27832065%" y2="100%" id="linearGradient-17">
            <stop stop-color="#CEC6FF" offset="0%"></stop>
            <stop stop-color="#719BCE" offset="100%"></stop>
        </linearGradient>
        <linearGradient x1="100%" y1="65.7036395%" x2="5.03298268%" y2="0%" id="linearGradient-18">
            <stop stop-color="#CEC6FF" offset="0%"></stop>
            <stop stop-color="#8DA8DD" stop-opacity="0.1" offset="41.0423431%"></stop>
            <stop stop-color="#719BCE" stop-opacity="0" offset="100%"></stop>
        </linearGradient>
    </defs>
    <g id="Special-offer-V2" stroke="none" stroke-width="1" fill="none" fill-rule="evenodd" transform="translate(-458.000000, -5321.000000)">
        <g id="lifetime" transform="translate(447.000000, 4805.000000)">
            <g id="CTA-table" transform="translate(0.000000, 231.000000)">
                <g id="rocket" transform="translate(0.000000, 285.000000)">
                    <g id="rocket-gas" transform="translate(259.826899, 126.610341) rotate(8.000000) translate(-259.826899, -126.610341) translate(7.826899, 53.610341)">
                        <path d="M314.479151,62.086069 C328.498131,62.086069 365.34525,62.7178859 405.579508,60.6542522 C439.324764,58.9234424 482.043686,52.9172837 503.462531,48.2486761 L501.739446,49.8418256 C465.037243,56.9919798 440.924177,62.0526887 406.015732,66.3756345 C362.071221,71.8175767 322.372242,76.5321597 309.637149,78.1144656 C304.602675,78.7399873 296.679357,82.0439267 292.825287,85.4612049 C288.971216,88.8784832 277.716474,95.234709 264.20423,94.1695088 L262.956782,46.5176818 C264.537149,46.3446124 269.80772,45.0930981 276.07265,47.7779927 C283.414905,50.9245849 290.454018,55.9704388 298.339562,58.9650838 C304.907904,61.4595029 312.752795,62.086069 314.479151,62.086069 Z" id="Path-41" fill="#6392CA"></path>
                        <path d="M261.826902,44.5262776 C324.751572,58.7781578 387.311301,60.9020119 449.506089,50.8978399 L449.755067,63.0794076 C350.603019,78.7111097 288.460783,90.1326879 263.328358,97.3441424 L261.826902,44.5262776 Z" id="Path-45" fill="url(#linearGradient-1)"></path>
                        <path d="M265.368039,63.8554309 C269.176546,59.1223547 280.553324,63.7644432 286.172482,65.9279567 C289.918587,67.3702989 299.83319,68.5283973 315.916292,69.4022519 C300.622572,70.6973181 291.057436,72.2863878 287.220883,74.1694609 C281.466053,76.9940705 273.112861,83.0919625 265.368039,77.5619605 C257.623217,72.0319585 261.559532,68.5885071 265.368039,63.8554309 Z" id="Path-47" fill="url(#linearGradient-2)"></path>
                        <g id="rocket" transform="translate(0.000000, 0.646369)">
                            <g id="krilo-dole-2" transform="translate(212.147350, 111.528471) scale(1, -1) rotate(-345.000000) translate(-212.147350, -111.528471) translate(174.578851, 86.958881)">
                                <path d="M0.207698988,27.5239942 C14.5479921,6.01694611 28.730253,-3.10331381 42.9071385,1.4715147 C49.3143754,3.53910634 55.7938544,5.96234441 62.3455754,8.74122891 C68.156679,11.2059837 67.2079207,17.0758088 59.4993006,26.3507043 L31.1668553,43.8657085 C23.4028187,38.6239092 17.8996844,35.3147248 14.6574523,33.9381553 C10.0490027,31.9815246 5.37461339,32.1775875 2.38418264,31.528383 L0.207698988,27.5239942 Z" id="Path-8" fill="#22396B"></path>
                                <path d="M2.35975612,31.5454905 C17.4726917,7.4308711 32.4949921,-2.21724205 47.4266572,2.60115104 C55.8284935,5.31239254 64.3545515,8.63517469 73.004831,12.5694975 C77.4867753,14.6079768 74.491438,19.5782578 64.0188192,27.4803407 L32.7563073,48.900127 C23.1918254,38.7821909 13.0596416,32.9973121 2.35975612,31.5454905 Z" id="Path-8" fill="#0F1A36"></path>
                            </g>
                            <g id="krilo-gore-2" transform="translate(213.511575, 34.208263) rotate(-345.000000) translate(-213.511575, -34.208263) translate(174.530726, 9.638673)">
                                <path d="M0.207698988,27.5239942 C14.5479921,6.01694611 28.730253,-3.10331381 42.9071385,1.4715147 C51.0939268,4.11336099 59.3986591,7.33584336 67.8213353,11.1389618 C72.4474811,13.2278204 69.6734695,18.2984013 59.4993006,26.3507043 L31.1668553,43.8657085 C23.4028187,38.6239092 17.8996844,35.3147248 14.6574523,33.9381553 C10.0490027,31.9815246 5.37461339,32.1775875 2.38418264,31.528383 L0.207698988,27.5239942 Z" id="Path-8" fill="#22396B"></path>
                                <path d="M2.35975612,31.5454905 C17.4726917,7.4308711 32.4949921,-2.21724205 47.4266572,2.60115104 C56.8119509,5.62975058 66.352249,9.42143461 76.0475517,13.9762031 C79.8672688,15.7706729 75.8576913,20.272052 64.0188192,27.4803407 L32.7563073,48.900127 C23.1918254,38.7821909 13.0596416,32.9973121 2.35975612,31.5454905 Z" id="Path-8" fill="#0F1A36"></path>
                            </g>
                            <path d="M236.581339,53.1162906 L260.940244,42.0981052 C268.617643,57.6006631 269.699482,77.3181153 264.18576,101.250462 L235.257343,91.8877704 L236.581339,53.1162906 Z" id="Path-9" fill="url(#linearGradient-3)"></path>
                            <path d="M252.234342,46.1236648 L260.958729,42.1606046 C268.623804,57.6214963 269.699482,77.3181153 264.18576,101.250462 C259.620342,99.7728626 256.196278,98.6646632 253.913568,97.9258636 C258.094586,82.6864505 257.534844,65.4190509 252.234342,46.1236648 Z" id="Path-9" fill="url(#linearGradient-4)"></path>
                            <g id="Group" transform="translate(0.824699, 21.287181)">
                                <mask id="mask-7" fill="white">
                                    <use xlink:href="#path-6"></use>
                                </mask>
                                <use id="Path-44" fill="url(#linearGradient-5)" xlink:href="#path-6"></use>
                                <path d="M96.0397718,2.82409085 C102.187526,12.0547685 105.146137,20.7721491 104.915605,28.9762326" id="Path-10" stroke="#B1BCD2" stroke-width="1.6948195" stroke-linecap="round" mask="url(#mask-7)"></path>
                                <path d="M158.183153,0.564818171 C173.813506,31.2674439 176.937555,56.950997 167.555301,77.6154772" id="Path-10-Copy" stroke="url(#linearGradient-8)" stroke-width="1.6948195" stroke-linecap="round" mask="url(#mask-7)"></path>
                                <path d="M54.4606735,65.5342683 C125.224414,89.6262388 188.982619,84.707438 245.73529,50.7778659" id="Path-11" stroke="url(#linearGradient-9)" stroke-width="1.6948195" stroke-linecap="round" mask="url(#mask-7)"></path>
                                <path d="M128.108467,102.702456 C134.81397,98.1796551 138.975892,90.8976334 140.594232,80.856391" id="Path-12" stroke="url(#linearGradient-10)" stroke-width="1.6948195" stroke-linecap="round" mask="url(#mask-7)"></path>
                                <path d="M170.236301,3.39165781 C182.207579,21.0669975 187.175309,38.3847862 185.139492,55.3450239 C182.085766,80.7853806 169.964951,95.7322223 162.748158,101.072922 L196.621779,92.5120967 C205.876705,75.9562733 210.214824,61.2674676 209.636138,48.4456794 C208.768109,29.2129971 201.717978,12.2202153 198.499326,9.07862696 C196.353558,6.98423474 186.93255,5.08857836 170.236301,3.39165781 Z" id="Path-13" fill="url(#linearGradient-3)" mask="url(#mask-7)"></path>
                            </g>
                            <g id="infinity-logo" transform="translate(115.507485, 73.815271) rotate(-10.000000) translate(-115.507485, -73.815271) translate(104.208689, 62.518908)">
                                <path d="M1.87924729,8.85305763 L8.85496459,8.85305763 L8.85496459,13.2795864 L4.74069018,13.2795864 C4.56771024,13.2795864 4.4274823,13.4198144 4.4274823,13.5927943 L4.4274823,17.3929074 C4.4274823,17.5658873 4.56771024,17.7061153 4.74069018,17.7061153 L8.54175671,17.7061153 C8.71473665,17.7061153 8.85496459,17.5658873 8.85496459,17.3929074 L8.85496459,1.87924729 C8.85496459,0.841367672 9.69633227,2.90900979e-14 10.7342119,2.79776202e-14 L20.2581642,-3.55271368e-15 C21.2960438,-5.58701364e-15 22.1374115,0.841367672 22.1374115,1.87924729 L22.1374115,11.4003391 C22.1374115,12.4382188 21.2960438,13.2795864 20.2581642,13.2795864 L13.2824469,13.2795864 L13.2824469,8.85305763 L17.3967213,8.85305763 C17.5697012,8.85305763 17.7099292,8.71282968 17.7099292,8.53984974 L17.7099292,4.7397367 C17.7099292,4.56675676 17.5697012,4.42652881 17.3967213,4.42652881 L13.5956548,4.42652881 C13.4226748,4.42652881 13.2824469,4.56675676 13.2824469,4.7397367 L13.2824469,20.2533968 C13.2824469,21.2912764 12.4410792,22.1326441 11.4031996,22.1326441 L1.87924729,22.1326441 C0.841367672,22.1326441 -2.9267879e-13,21.2912764 -6.53699317e-13,20.2533968 L4.62696548e-12,10.7323049 C4.9877318e-12,9.6944253 0.841367672,8.85305763 1.87924729,8.85305763 Z" id="Rectangle-21" fill="url(#linearGradient-11)"></path>
                                <rect id="shadow" fill-opacity="0.12" fill="url(#linearGradient-12)" transform="translate(15.179939, 11.066322) rotate(-180.000000) translate(-15.179939, -11.066322) " x="13.2824469" y="8.85305763" width="3.79498483" height="4.42652881"></rect>
                                <rect id="shadow" fill-opacity="0.12" fill="url(#linearGradient-12)" transform="translate(6.957472, 11.066322) scale(-1, 1) rotate(-180.000000) translate(-6.957472, -11.066322) " x="5.05997977" y="8.85305763" width="3.79498483" height="4.42652881"></rect>
                                <rect id="Rectangle-22" fill="#8A95F7" filter="url(#filter-13)" x="0" y="0" width="4.4274823" height="4.42652881" rx="0.626415765"></rect>
                                <rect id="Rectangle-22" fill="#B668F5" filter="url(#filter-14)" x="17.7099292" y="17.7061153" width="4.4274823" height="4.42652881" rx="0.626415765"></rect>
                            </g>
                            <g id="Oval-6">
                                <use fill-opacity="0.5" fill="url(#linearGradient-15)" fill-rule="evenodd" xlink:href="#path-16"></use>
                                <ellipse stroke="#15274D" stroke-width="3.6644746" cx="114.942546" cy="72.1208167" rx="23.5900552" ry="23.5845804"></ellipse>
                            </g>
                            <path d="M1.194818,71.3381553 C16.817445,57.3290441 33.5693241,46.3251184 51.4504552,38.3263781 C60.0832708,50.6962003 65.9694757,86.3046929 48.0724495,106.477164 C32.2711106,98.6277351 16.5830031,87.3558855 1.194818,71.3381553 Z" id="Path-44" fill="url(#linearGradient-3)"></path>
                            <g id="krilo-gore-1" transform="translate(203.073160, 5.472273)">
                                <path d="M0.207698988,27.5239942 C14.5479921,6.01694611 28.730253,-3.10331381 42.9071385,1.4715147 C57.8388036,6.28990779 73.162811,13.0397949 88.8791607,21.7211761 L79.0861203,27.2423336 L59.4993006,26.3507043 L31.1668553,43.8657085 C23.4028187,38.6239092 17.8996844,35.3147248 14.6574523,33.9381553 C10.0490027,31.9815246 5.37461339,32.1775875 2.38418264,31.528383 L0.207698988,27.5239942 Z" id="Path-8" fill="#23396B"></path>
                                <path d="M2.35975612,31.5454905 C17.4726917,7.4308711 32.4949921,-2.21724205 47.4266572,2.60115104 C62.3583223,7.41954413 77.6823297,14.1694313 93.3986793,22.8508124 L83.6056389,28.3719699 L64.0188192,27.4803407 L32.7563073,48.900127 C23.1918254,38.7821909 13.0596416,32.9973121 2.35975612,31.5454905 Z" id="Path-8" fill="#15274D"></path>
                            </g>
                            <g id="krilo-dole-1" transform="translate(247.703407, 112.505316) scale(1, -1) translate(-247.703407, -112.505316) translate(200.813400, 87.935726)">
                                <path d="M0.207698988,27.5239942 C14.5479921,6.01694611 28.730253,-3.10331381 42.9071385,1.4715147 C57.8388036,6.28990779 73.162811,13.0397949 88.8791607,21.7211761 L79.0861203,27.2423336 L59.4993006,26.3507043 L31.1668553,43.8657085 C23.4028187,38.6239092 17.8996844,35.3147248 14.6574523,33.9381553 C10.0490027,31.9815246 5.37461339,32.1775875 2.38418264,31.528383 L0.207698988,27.5239942 Z" id="Path-8" fill="#23396B"></path>
                                <path d="M2.35975612,31.5454905 C17.4726917,7.4308711 32.4949921,-2.21724205 47.4266572,2.60115104 C62.3583223,7.41954413 77.6823297,14.1694313 93.3986793,22.8508124 L83.6056389,28.3719699 L64.0188192,27.4803407 L32.7563073,48.900127 C23.1918254,38.7821909 13.0596416,32.9973121 2.35975612,31.5454905 Z" id="Path-8" fill="#15274D"></path>
                            </g>
                        </g>
                    </g>
                    <path d="M911.525617,38.6024272 C928.405637,61.0640614 874.882038,88.6505344 739.964339,111.819511 C697.919902,119.039665 676.202059,122.229313 642.790296,126.863263 C588.05524,134.454587 519.681999,138.83421 437.670575,140.002132" id="Path-15" stroke="url(#linearGradient-17)" stroke-width="3" stroke-linecap="round"></path>
                    <path d="M761.992912,0.847009282 C783.742069,2.67540975 809.012462,5.97118605 809.863177,6.08643193 C873.278931,14.6773307 909.019307,27.9336644 913.951663,43.1355563" id="Path-15" stroke="url(#linearGradient-18)" stroke-width="3" stroke-linecap="round"></path>
                </g>
            </g>
        </g>
    </g>
</svg>